/* XPM */
static char *gurlchecker_icon[] = {
/* columns rows colors chars-per-pixel */
"32 32 230 2",
"   c #000000",
".  c #010101",
"X  c #020202",
"o  c #030303",
"O  c #040404",
"+  c #050505",
"@  c #060606",
"#  c #070707",
"$  c #080808",
"%  c #090909",
"&  c #0A0A0A",
"*  c #0B0B0B",
"=  c #0C0C0C",
"-  c #0D0D0D",
";  c #0E0E0E",
":  c #0F0F0F",
">  c #101010",
",  c #111111",
"<  c #121212",
"1  c #131313",
"2  c #141414",
"3  c #151515",
"4  c #161616",
"5  c #171717",
"6  c #181818",
"7  c #191919",
"8  c #1A1A1A",
"9  c #1B1B1B",
"0  c #1C1C1C",
"q  c #1D1D1D",
"w  c #1E1E1E",
"e  c #1F1F1F",
"r  c #202020",
"t  c #212121",
"y  c #222222",
"u  c #232323",
"i  c #242424",
"p  c #252525",
"a  c #262626",
"s  c #272727",
"d  c #282828",
"f  c #292929",
"g  c #2A2A2A",
"h  c #2B2B2B",
"j  c #2C2C2C",
"k  c #2D2D2D",
"l  c #2E2E2E",
"z  c #303030",
"x  c #313131",
"c  c #333333",
"v  c #343434",
"b  c #363636",
"n  c #373737",
"m  c #383838",
"M  c #393939",
"N  c #3A3A3A",
"B  c #3B3B3B",
"V  c #3C3C3C",
"C  c #3E3E3E",
"Z  c #3F3F3F",
"A  c #404040",
"S  c #414141",
"D  c #424242",
"F  c #434343",
"G  c #444444",
"H  c #454545",
"J  c #464646",
"K  c #474747",
"L  c #484848",
"P  c #4A4A4A",
"I  c #4B4B4B",
"U  c #4D4D4D",
"Y  c #4E4E4E",
"T  c #4F4F4F",
"R  c #505050",
"E  c #515151",
"W  c #525252",
"Q  c #545454",
"!  c #555555",
"~  c #565656",
"^  c #585858",
"/  c #595959",
"(  c #5A5A5A",
")  c #5B5B5B",
"_  c #5C5C5C",
"`  c #5D5D5D",
"'  c #5E5E5E",
"]  c #5F5F5F",
"[  c #606060",
"{  c #616161",
"}  c #626262",
"|  c #636363",
" . c #646464",
".. c #666666",
"X. c #676767",
"o. c #686868",
"O. c #6A6A6A",
"+. c #6B6B6B",
"@. c #6C6C6C",
"#. c #6D6D6D",
"$. c #6E6E6E",
"%. c #6F6F6F",
"&. c #707070",
"*. c #717171",
"=. c #727272",
"-. c #737373",
";. c #747474",
":. c #767676",
">. c #777777",
",. c #787878",
"<. c #797979",
"1. c #7A7A7A",
"2. c #7B7B7B",
"3. c #7C7C7C",
"4. c #7D7D7D",
"5. c #7E7E7E",
"6. c #7F7F7F",
"7. c #808080",
"8. c #818181",
"9. c #828282",
"0. c #848484",
"q. c #858585",
"w. c #868686",
"e. c #878787",
"r. c #888888",
"t. c #898989",
"y. c #8B8B8B",
"u. c #8C8C8C",
"i. c #8D8D8D",
"p. c #8E8E8E",
"a. c #8F8F8F",
"s. c #909090",
"d. c #919191",
"f. c #929292",
"g. c #939393",
"h. c #949494",
"j. c #959595",
"k. c #969696",
"l. c #979797",
"z. c #989898",
"x. c #999999",
"c. c #9A9A9A",
"v. c #9B9B9B",
"b. c #9C9C9C",
"n. c #9D9D9D",
"m. c #9E9E9E",
"M. c #9F9F9F",
"N. c #A0A0A0",
"B. c #A1A1A1",
"V. c #A2A2A2",
"C. c #A3A3A3",
"Z. c #A4A4A4",
"A. c #A5A5A5",
"S. c #A6A6A6",
"D. c #A7A7A7",
"F. c #A8A8A8",
"G. c #A9A9A9",
"H. c #AAAAAA",
"J. c #ABABAB",
"K. c #ACACAC",
"L. c #ADADAD",
"P. c #AEAEAE",
"I. c #AFAFAF",
"U. c #B0B0B0",
"Y. c #B1B1B1",
"T. c #B2B2B2",
"R. c #B3B3B3",
"E. c #B4B4B4",
"W. c #B5B5B5",
"Q. c #B6B6B6",
"!. c #B7B7B7",
"~. c #B9B9B9",
"^. c #BABABA",
"/. c #BBBBBB",
"(. c #BCBCBC",
"). c #BDBDBD",
"_. c #BEBEBE",
"`. c #BFBFBF",
"'. c #C0C0C0",
"]. c #C1C1C1",
"[. c #C2C2C2",
"{. c #C3C3C3",
"}. c #C4C4C4",
"|. c #C5C5C5",
" X c #C6C6C6",
".X c #C7C7C7",
"XX c #C8C8C8",
"oX c #C9C9C9",
"OX c #CACACA",
"+X c #CBCBCB",
"@X c #CCCCCC",
"#X c #CDCDCD",
"$X c #CECECE",
"%X c #CFCFCF",
"&X c #D0D0D0",
"*X c #D1D1D1",
"=X c #D2D2D2",
"-X c #D3D3D3",
";X c #D4D4D4",
":X c #D5D5D5",
">X c #D6D6D6",
",X c #D7D7D7",
"<X c #D8D8D8",
"1X c #D9D9D9",
"2X c #DADADA",
"3X c #DBDBDB",
"4X c #DCDCDC",
"5X c #DDDDDD",
"6X c #DEDEDE",
"7X c #DFDFDF",
"8X c #E0E0E0",
"9X c #E1E1E1",
"0X c #E2E2E2",
"qX c #E3E3E3",
"wX c #E4E4E4",
"eX c #E5E5E5",
"rX c #E6E6E6",
"tX c #E7E7E7",
"yX c #E8E8E8",
"uX c #E9E9E9",
"iX c #EAEAEA",
"pX c #EBEBEB",
"aX c #ECECEC",
"sX c #EDEDED",
"dX c #EEEEEE",
"fX c #EFEFEF",
"gX c #F0F0F0",
"hX c #F1F1F1",
"jX c #F2F2F2",
"kX c #F3F3F3",
/* pixels */
"          * f.|.c.X.A g e , O O g f.`././.`.|./.J.b.f. .v e O &.",
"            W !.y./ V j e - , / N.|..X#X.X`.E.A.f.5. .P 9 O   &.",
"            , 5.y.' A x 3 j q.`..X#X%X%X#X#X#XE.b.5.T t O     &.",
"              t >.+.K v } Y..X#X.X#X%X#X.X.X.X/.J.y.&.M *     &.",
"            , e ~ ,. .k.%X-X%X%X#X.X.X.X|.`.`.E.J.y.&.K 3     &.",
"        - P 5.y.f.k.`.,X,X-X-X%X%X.X.X#X|./.!.J.k.8. .A 3     +.",
"      * ' J.!.`./..X7X7X7X4X%X-X%X.X#X.X`.Y.J.A.f.8.&.~ g O   &.",
"      T Y.`.%X-X-X-X-X7X7X4X4X,X-X-X%X|./.Y.A.b.t.,.>.} A 3   &.",
"    3 N.#X-XrXrX4X`.E.4XrX7X4X,X,X-X#X|.Y.N.c.f.t.5.>. .W p   +.",
"    t !.%X4XrX7X%Xb.A.7X7XrX4X%X4X4X%X|.Y.N.f.q.8.+.' / T j O &.",
"    3 A.,X7XrX4XY.8.`.7X,X7X,X-X4X4X%X/.E.c.5.' W A V K T x * &.",
"      +.-X,XrX%Xc.J.7X#XE.,X4X-X-X,X`.J.J.f./ p 9 e 9 v T g O &.",
"      t f./.4X.XA.,X,XE.b.-X,X|.E..X.X/.A.&.x - O O * A A 9   &.",
"        j q.|.`.`.7X|.y.A.rX%XJ.,.`.%X`.f.T e       - A x -   +.",
"        O M k.!..X4XY.8..X7X|.q.+.,X4X`.t.M -       3 M g *   &.",
"          O v 8..X-XN.f.7X-XA.' q.rX4X!.X.9         3 v t O   &.",
"            O M E.-Xc.J.4X.Xq.P J.yX-Xk.M *         * 9 -     &.",
"        O - , 3 >./.k.J.,X!.+.W %X,X!.&.t             O       &.",
"      p +.f.f.5.,.t.} q.%XA./  .4X#XJ.~ ,       O , 3 -       &.",
"    K E.%X#X#X#X!.f.T X.#XN.' >.,X/.8.x *   O O e M P M p ,   &.",
"  M |.rX7X7X4X,X#X`.A.k./.A.~ 8.4XJ.} e       t T +.8.&.' V 9 >.",
", N.yXsXsXyXsX4X`.`.`.|..Xb.x +.,XA.~ ,     3 W 8.c.J.A.f.&./ k.",
"v ,XjXjXsXjXjX7X,X4X4X4X-X!.~ / `.y.V *   * V q.J./..X`.E.A.k./.",
"W sXjXsXjXjXsX4XsXjXsXyX,XJ.} M c.5.j *   9  .J.#X-X,X%X.X/.E.-X",
"A rXkXsXjXjXsX7XyXjXkXjX-Xk.A 9 W ' p - O e X.Y.-X4XrX4X-X#X`.7X",
"9 !.rX4XrXsXjXsX7XjXkXsX`.+.p , 3 v 9 - O - ~ J.#X4XrX7X4X,X#XyX",
"e b.%X/.E.`.7XjXyXyXyX,Xb.K , O O , O O O O t ,./.-X4X7X7X,X%XyX",
"J.-X4X-X`.c.+.c..X%X`.b.} p O       O   O     j f..X-X4X4X,X-XsX",
"rXyXyX4X-X#X5.e x T K x 3 O   O     O O O O O 3 T c.`.%X4X4X4XsX",
"yXyXsXyXrX-XJ.v           O       O       O - j  .8./.4X7X4X,XsX",
"7XrXjXjXsX-Xf.x O     O   O   O     O     * 3 T A.c.Y.4XrX7X4XjX",
"rXrXjXkXrXE.} e   O     O     O O O O O   - p ,.%X!.!.%X7XrX4XsX"
};
